<?xml version="1.0" encoding="UTF-8"?>
<svg version="1.1" xmlns="http://www.w3.org/2000/svg" width="124" height="131">
<path d="M0 0 C3.07194192 2.48681013 4.91372603 4.85528237 6.9375 8.25 C8.78335544 11.2998206 8.78335544 11.2998206 12.25 11.875 C13.61125 11.936875 13.61125 11.936875 15 12 C15.2475 11.46375 15.495 10.9275 15.75 10.375 C17.98609906 6.12641179 19.96811275 2.68792483 24 0 C30.56603774 0.56603774 30.56603774 0.56603774 32 2 C32.8053898 6.11643674 32.56609062 8.05056161 30.390625 11.69921875 C27.55222173 15.61002626 24.70398764 19.30305224 21.265625 22.70703125 C18.16287633 27.21671595 18.3635924 30.78031363 18.4375 36.125 C18.52334878 45.27780054 18.52334878 45.27780054 16.12890625 48.58203125 C14 50 14 50 11.5 50.5625 C9 50 9 50 6.83984375 48.01171875 C4.66715933 44.4551589 4.76738483 42.69730573 4.95288086 38.66674805 C5.4291207 28.16719762 2.53008582 22.36474321 -4.42749023 14.60839844 C-8.91708564 9.58999394 -8.91708564 9.58999394 -9.47265625 5.63671875 C-9 3 -9 3 -7.875 1.125 C-5.02744985 -0.58353009 -3.26172661 -0.52187626 0 0 Z " fill="#DCE0E4" transform="translate(31,52)"/>
<path d="M0 0 C3 0.125 3 0.125 4 1.125 C4.12629093 4.18334532 4.18874201 7.21777265 4.203125 10.27734375 C4.20882507 11.206642 4.21452515 12.13594025 4.22039795 13.09339905 C4.22987021 15.06982275 4.23639071 17.04626241 4.24023438 19.02270508 C4.24985923 22.01868307 4.28082706 25.01395124 4.3125 28.00976562 C4.31903806 29.9322876 4.32428537 31.85481449 4.328125 33.77734375 C4.3404718 34.66316635 4.3528186 35.54898895 4.36553955 36.46165466 C4.32851325 47.03384439 1.4995531 55.55305739 -6 63.125 C-14.58012607 70.20436197 -23.01632978 72.02835669 -34 71.125 C-43.49888467 69.35326446 -50.35576474 63.79646335 -55.8125 56.01171875 C-58.24224075 52.15130828 -59 49.70946346 -59 45.125 C-56.69 45.125 -54.38 45.125 -52 45.125 C-51.16151196 46.58037568 -50.32936066 48.03940373 -49.5 49.5 C-49.0359375 50.31210938 -48.571875 51.12421875 -48.09375 51.9609375 C-47 54.125 -47 54.125 -47 56.125 C-46.01 56.455 -45.02 56.785 -44 57.125 C-44 57.785 -44 58.445 -44 59.125 C-43.278125 59.41375 -42.55625 59.7025 -41.8125 60 C-40.08980202 60.68907919 -38.37776763 61.40668628 -36.6875 62.171875 C-31.31867094 64.07593647 -24.98410099 64.14701843 -19.58203125 62.296875 C-17.6492971 61.32506871 -15.83524347 60.26785616 -14 59.125 C-13.28972656 58.78597656 -12.57945313 58.44695312 -11.84765625 58.09765625 C-9.38428184 56.8008693 -9.04182304 55.69483017 -8 53.125 C-7.49549316 52.13870605 -6.99098633 51.15241211 -6.47119141 50.13623047 C-4.44359146 45.3876409 -4.54098212 40.73003939 -4.5234375 35.6328125 C-4.50006821 34.15299393 -4.50006821 34.15299393 -4.47622681 32.64328003 C-4.42892756 29.51219388 -4.40099812 26.38132921 -4.375 23.25 C-4.33853158 20.09740134 -4.29800077 16.94492896 -4.25234985 13.79244995 C-4.22507491 11.83494483 -4.20374474 9.87734643 -4.18881226 7.91970825 C-4.17341904 6.60231155 -4.17341904 6.60231155 -4.15771484 5.25830078 C-4.15121918 4.48221466 -4.14472351 3.70612854 -4.13803101 2.90652466 C-3.89741059 -0.19909068 -3.16144091 0.1317267 0 0 Z " fill="#C4CED3" transform="translate(99,57.875)"/>
<path d="M0 0 C3.4375 1.8125 3.4375 1.8125 6 4 C6.5775 4.474375 7.155 4.94875 7.75 5.4375 C10.73261193 9.16576491 11.49357114 13.12618284 11.39453125 17.87109375 C10.50657458 22.66254313 7.3810763 26.6189237 4 30 C3.01 30 2.02 30 1 30 C0.87625 31.27875 0.7525 32.5575 0.625 33.875 C0.25 37.75 0.25 37.75 -2 40 C-5 40.25 -5 40.25 -8 40 C-10 38 -10 38 -10.25 34.625 C-10.61373905 30.79428846 -10.61373905 30.79428846 -13.8125 29 C-15.3903125 28.01 -15.3903125 28.01 -17 27 C-19.83483397 23.65679155 -21.24479536 20.31943586 -21.4375 15.9375 C-20.81102179 10.29919607 -19.22298879 6.8547887 -14.9375 3.1875 C-9.99277843 -0.49473947 -6.07187892 -0.69019822 0 0 Z M-8 7 C-8 7.33 -8 7.66 -8 8 C-6.02 8 -4.04 8 -2 8 C-2 7.67 -2 7.34 -2 7 C-3.98 7 -5.96 7 -8 7 Z M2 11 C3 13 3 13 3 13 Z M-14 14 C-13 18 -13 18 -13 18 Z " fill="#C9D0D7" transform="translate(104,17)"/>
<path d="M0 0 C3.5625 0.1875 3.5625 0.1875 5.5625 2.1875 C5.7578125 4.3515625 5.7578125 4.3515625 5.6875 6.8125 C5.66945313 7.62976563 5.65140625 8.44703125 5.6328125 9.2890625 C5.60960938 9.91554688 5.58640625 10.54203125 5.5625 11.1875 C6.20058594 11.17589844 6.83867188 11.16429687 7.49609375 11.15234375 C8.32238281 11.14332031 9.14867188 11.13429688 10 11.125 C10.82371094 11.11339844 11.64742187 11.10179687 12.49609375 11.08984375 C14.5625 11.1875 14.5625 11.1875 15.5625 12.1875 C15.70443337 15.19081018 15.60486378 18.17967134 15.5625 21.1875 C12.2625 21.1875 8.9625 21.1875 5.5625 21.1875 C5.583125 22.816875 5.60375 24.44625 5.625 26.125 C5.64636068 27.81249341 5.63455511 29.50141034 5.5625 31.1875 C4.5625 32.1875 4.5625 32.1875 2.75 32.3203125 C2.028125 32.31773438 1.30625 32.31515625 0.5625 32.3125 C-0.159375 32.31507812 -0.88125 32.31765625 -1.625 32.3203125 C-3.4375 32.1875 -3.4375 32.1875 -4.4375 31.1875 C-4.58007189 27.85131769 -4.47978157 24.52774394 -4.4375 21.1875 C-8.0675 21.1875 -11.6975 21.1875 -15.4375 21.1875 C-15.4375 18.2175 -15.4375 15.2475 -15.4375 12.1875 C-13.03204362 10.98477181 -11.48753047 11.08678528 -8.8125 11.125 C-7.58660156 11.13853516 -7.58660156 11.13853516 -6.3359375 11.15234375 C-5.39621094 11.16974609 -5.39621094 11.16974609 -4.4375 11.1875 C-4.44910156 10.47722656 -4.46070313 9.76695313 -4.47265625 9.03515625 C-4.48619141 7.65650391 -4.48619141 7.65650391 -4.5 6.25 C-4.51160156 5.33347656 -4.52320313 4.41695312 -4.53515625 3.47265625 C-4.37688684 -0.23084786 -3.83485767 0.20917405 0 0 Z " fill="#D7DDE1" transform="translate(42.4375,14.8125)"/>
<path d="M0 0 C3.71876719 0.08026116 5.25412049 0.92010041 8.125 3.3125 C9.5790625 3.498125 9.5790625 3.498125 11.0625 3.6875 C15.11707548 4.51496438 16.53426742 6.14604907 19.125 9.3125 C23.12102717 17.75166227 21.34757603 26.33329774 18.46484375 34.87890625 C12.11095345 51.16190792 12.11095345 51.16190792 8.15625 53.453125 C6.125 53.3125 6.125 53.3125 3.875 51.375 C3.2975 50.694375 2.72 50.01375 2.125 49.3125 C2.59550781 48.40628906 3.06601562 47.50007813 3.55078125 46.56640625 C10.85957304 32.66651932 10.85957304 32.66651932 13.125 17.3125 C11.94048282 13.88363447 11.04945415 12.02820644 8.1875 9.8125 C6.10181453 9.07200224 6.10181453 9.07200224 4.25 10.25 C1.2431769 11.75341155 -0.68831304 11.14380964 -3.875 10.3125 C-5.875 8.3125 -5.875 8.3125 -6.125 5.3125 C-5.73420407 0.6229489 -4.62247488 0.37278023 0 0 Z " fill="#C0C7CE" transform="translate(55.875,-0.3125)"/>
<path d="M0 0 C0 2.31 0 4.62 0 7 C-0.99 7 -1.98 7 -3 7 C-6.39264511 13.57324991 -5.55805916 19.71992465 -3.45996094 26.53271484 C-1.51309122 32.44820361 0.75066929 37.97644724 4.08203125 43.265625 C5 45 5 45 5 48 C3.02 48.66 1.04 49.32 -1 50 C-8.58026662 40.32306388 -14.83385454 26.52767182 -14 14 C-13.19150039 9.12612025 -11.80353482 5.33087708 -8.125 1.9375 C-4.9702151 -0.01846664 -3.61182649 -0.53115095 0 0 Z " fill="#CFD5DA" transform="translate(22,3)"/>
<path d="M0 0 C1.875 1.5625 1.875 1.5625 3 4 C3.38503486 8.38939738 3.47342266 10.28986601 1 14 C-1.09375 14.36328125 -1.09375 14.36328125 -3.5 14.3125 C-4.2940625 14.30863281 -5.088125 14.30476563 -5.90625 14.30078125 C-8 14 -8 14 -10 12 C-10.67386609 5.03671706 -10.67386609 5.03671706 -8.375 1.5 C-5.29690766 -0.44405832 -3.57597151 -0.608676 0 0 Z " fill="#EEF1F2" transform="translate(102,25)"/>
<path d="M0 0 C0.70125 0.01417969 1.4025 0.02835937 2.125 0.04296875 C3.176875 0.05263672 3.176875 0.05263672 4.25 0.0625 C6.125 0.23046875 6.125 0.23046875 8.125 1.23046875 C8.875 4.10546875 8.875 4.10546875 9.125 7.23046875 C7.125 10.23046875 7.125 10.23046875 3.75 11.10546875 C0.125 11.23046875 0.125 11.23046875 -2.3125 10.16796875 C-3.875 8.23046875 -3.875 8.23046875 -4.25 5.16796875 C-3.84018704 1.95776723 -3.42013991 0.4203922 0 0 Z " fill="#CAD2D9" transform="translate(26.875,-0.23046875)"/>
<path d="M0 0 C1.670625 0.061875 1.670625 0.061875 3.375 0.125 C3.375 0.785 3.375 1.445 3.375 2.125 C4.035 2.125 4.695 2.125 5.375 2.125 C5.41754356 4.12454746 5.41580783 6.12541636 5.375 8.125 C4.375 9.125 4.375 9.125 1 9.25 C-2.625 9.125 -2.625 9.125 -5.625 8.125 C-5.75 5.25 -5.75 5.25 -5.625 2.125 C-3.625 0.125 -3.625 0.125 0 0 Z " fill="#EAEDEF" transform="translate(55.625,-0.125)"/>
<path d="M0 0 C3 1 3 1 5 3 C7.06874034 3.6425235 7.06874034 3.6425235 9 4 C8.01 4 7.02 4 6 4 C6.33 5.98 6.66 7.96 7 10 C6.4225 9.79375 5.845 9.5875 5.25 9.375 C2.98609862 8.76287058 2.98609862 8.76287058 1.125 10 C-1.87524968 11.4118822 -3.85987012 10.83736797 -7 10 C-7.33 9.34 -7.66 8.68 -8 8 C-5.03 8 -2.06 8 1 8 C1.33 6.02 1.66 4.04 2 2 C1.34 2 0.68 2 0 2 C0 1.34 0 0.68 0 0 Z " fill="#7A95A0" transform="translate(59,0)"/>
<path d="M0 0 C2.31 0 4.62 0 7 0 C7.83848804 1.45537568 8.67063934 2.91440373 9.5 4.375 C9.9640625 5.18710938 10.428125 5.99921875 10.90625 6.8359375 C12 9 12 9 12 11 C12.99 11.33 13.98 11.66 15 12 C15 12.66 15 13.32 15 14 C13.68 14 12.36 14 11 14 C10.5978125 12.948125 10.5978125 12.948125 10.1875 11.875 C9.00782057 8.91073437 9.00782057 8.91073437 7.375 5.8125 C6 3 6 3 6 1 C5.01 1.33 4.02 1.66 3 2 C2.67 3.65 2.34 5.3 2 7 C0 4 0 4 0 0 Z " fill="#80A0A9" transform="translate(40,103)"/>
<path d="M0 0 C2.97 0.495 2.97 0.495 6 1 C6.32374517 6.50366792 6.53286034 10.43672206 3 15 C2.34 14.67 1.68 14.34 1 14 C1.165 13.484375 1.33 12.96875 1.5 12.4375 C2.16025316 9.21876586 2.17875792 6.27722861 2 3 C1.34 2.01 0.68 1.02 0 0 Z M4 2 C5 4 5 4 5 4 Z " fill="#5E6C78" transform="translate(102,26)"/>
<path d="M0 0 C-0.7425 0.5775 -1.485 1.155 -2.25 1.75 C-4.99198619 3.90659314 -4.99198619 3.90659314 -7.1875 6.25 C-9 8 -9 8 -11 8 C-9.04672006 1.97738686 -6.47971237 -0.53997603 0 0 Z " fill="#B5C7CC" transform="translate(60,52)"/>
<path d="M0 0 C1.5 1.3125 1.5 1.3125 3 3 C3 3.99 3 4.98 3 6 C1.02 6.66 -0.96 7.32 -3 8 C-3.66 7.01 -4.32 6.02 -5 5 C-3.02 5 -1.04 5 1 5 C0.67 3.35 0.34 1.7 0 0 Z " fill="#6A7D99" transform="translate(24,45)"/>
<path d="M0 0 C0 0.99 0 1.98 0 3 C-2.97 3 -5.94 3 -9 3 C-9.33 2.34 -9.66 1.68 -10 1 C-6.78548731 -0.60725635 -3.56387464 -0.05748185 0 0 Z " fill="#61717F" transform="translate(103,39)"/>
<path d="M0 0 C1.90389849 2.85584773 2.69462177 4.9311762 3.625 8.1875 C4.01558594 9.53908203 4.01558594 9.53908203 4.4140625 10.91796875 C4.60742188 11.60503906 4.80078125 12.29210938 5 13 C1.7524839 9.90009827 0.03365487 7.99281857 -0.125 3.3125 C-0.08375 2.219375 -0.0425 1.12625 0 0 Z " fill="#5F7284" transform="translate(17,28)"/>
<path d="M0 0 C-0.99 0 -1.98 0 -3 0 C-2.67 1.98 -2.34 3.96 -2 6 C-2.99 5.67 -3.98 5.34 -5 5 C-5.33 3.35 -5.66 1.7 -6 0 C-3.50907189 -1.24546405 -2.58919267 -0.7767578 0 0 Z " fill="#677F8E" transform="translate(68,4)"/>
<path d="M0 0 C1.65 0 3.3 0 5 0 C5 2.31 5 4.62 5 7 C4.01 6.67 3.02 6.34 2 6 C2 4.68 2 3.36 2 2 C1.34 1.34 0.68 0.68 0 0 Z " fill="#67798D" transform="translate(17,3)"/>
</svg>
